<svg xmlns="http://www.w3.org/2000/svg" width="64.3mm" height="82.2mm" viewBox="0 0 24084 30799.4" clip-rule="evenodd" fill-rule="evenodd" image-rendering="optimizeQuality"><style>
@keyframes a_o { 0% { opacity: 0; } 50% { opacity: 1; } 100% { opacity: 1; } }
@keyframes b_t { 0% { transform: translate(11961.9px,13205.2px) scale(.4,.4) translate(-6120.2px,-1327.3px); } 16.667% { transform: translate(11961.9px,13205.2px) scale(1,1) translate(-6120.2px,-1327.3px); } 100% { transform: translate(11961.9px,13205.2px) scale(1,1) translate(-6120.2px,-1327.3px); } }
@keyframes b_o { 0% { opacity: 0; } 16.667% { opacity: 1; } 100% { opacity: 1; } }
@keyframes c_o { 0% { opacity: 0; animation-timing-function: cubic-bezier(.3,0,1,1); } 33.333% { opacity: 1; } 100% { opacity: 1; } }
@keyframes d_t { 0% { transform: translate(12042px,11876px) scale(.9,.9) translate(-12042px,-12207.6px); } 100% { transform: translate(12042px,11876px) scale(1,1) translate(-12042px,-12207.6px); } }
@keyframes d_o { 0% { opacity: 0; } 50% { opacity: 1; } 100% { opacity: 1; } }
</style><g><path class="fil0" d="M12714.7 2723.7l3458.6 1996.8l3475 2006.3c383.7 221.5 656.2 712.6 656.2 1155.6v3993.6v4012.7c0 443-289 924.6-672.7 1146.1l-3458.5 1996.8l-3475.1 2006.3c-383.6 221.5-945.3 212-1328.9-9.5l-3458.5-1996.8l-3475.1-2006.3c-383.6-221.5-656.2-712.7-656.2-1155.7v-3993.6v-4012.6c0-443 289.1-924.6 672.7-1146.2l3458.6-1996.7l3475-2006.4c383.6-221.5 945.3-211.9 1328.9 9.6Z" fill="#6597f4" opacity="0" style="animation: 6s linear both a_o;"/><rect class="fil1" width="24084" height="30799.4" fill="none"/><path class="fil2" d="M14864.6 9768.1l-188 190.2h-26l-189.1-190.2v382.5h-130.8v-648.4h35.7l295 290.7l298.4-290.7h34.6v648.4h-129.8v-382.5Zm-1047.1-151.3h-157.8v225.8h161c82.2 0 131.9-36.7 131.9-112.4c0-74.5-50.8-113.4-135.1-113.4Zm-288.6-114.6h292.9c164.3 0 265.9 81.1 265.9 222.6c0 96.2-47.6 162.1-122.2 197.8v9.7l154.6 205.4v12.9h-148l-143.8-197.7h-168.6v197.7h-130.8v-648.4Zm-357.6 324.2c0-123.2-87.5-212.9-209.6-212.9c-121.1 0-207.6 89.7-207.6 212.9c0 123.2 86.5 212.9 207.6 212.9c122.1 0 209.6-89.7 209.6-212.9Zm-552.3 0c0-187 130.8-338.3 342.7-338.3c212.9 0 343.6 151.3 343.6 338.3c0 187-130.7 338.3-343.6 338.3c-211.9 0-342.7-151.3-342.7-338.3Zm-668.9-324.2h503.7v114.6h-372.9v157.7h319.9v107h-319.9v269.1h-130.8v-648.4Zm-753.2 0h553.3v114.6h-210.7v533.8h-130.7v-533.8h-211.9v-114.6Zm-383.6 236.7h-8.6l-98.4 211.8l-7.5 14h220.5l-7.6-14l-98.4-211.8Zm-15.1-236.7h22.7l333.9 648.4h-148l-42.1-88.6h-310.2l-41.1 88.6h-148.1l332.9-648.4Zm-926.1 648.4v-648.4h130.7v533.9h345.9v114.5h-476.6Zm-479.8-533.8h-157.8v228h158.9c84.3 0 135.1-35.7 135.1-114.6c0-74.5-51.9-113.4-136.2-113.4Zm270.2 108c0 151.3-112.4 231.3-273.4 231.3h-154.6v194.5h-130.8v-648.4h294c163.2 0 264.8 81 264.8 222.6Z" fill-rule="nonzero" fill="#d4d4d4"/><path class="fil3" d="M16506.2 9205.1h-53.1l-736.8-670.8v670.8h-221.8v-1099.7h55l736.8 656.2v-654.3h219.9v1097.8Zm-1644 0h-221.7v-1099.7h221.7v1099.7Zm-1011.6-549.8c0-209-148.5-361.1-355.6-361.1c-205.2 0-351.9 152.1-351.9 361.1c0 209 146.7 361 351.9 361c207.1 0 355.6-152 355.6-361Zm-936.5 0c0-317.1 221.7-573.7 580.9-573.7c361.1 0 582.9 256.6 582.9 573.7c0 317-221.8 573.7-582.9 573.7c-359.2 0-580.9-256.7-580.9-573.7Zm-434.4 438c0 0-122.8 135.7-388.6 135.7c-359.2 0-584.6-256.7-584.6-573.7c0-317.1 225.4-573.7 584.6-573.7c267.6 0 388.6 135.6 388.6 135.6l-126.5 170.5c0 0-113.6-93.5-258.4-93.5c-210.8 0-359.3 152.1-359.3 361.1c0 209 148.5 362.9 359.3 362.9c166.8 0 258.4-95.3 258.4-95.3l126.5 170.4Zm-2224.9-174.1c0 0 144.7 106.3 324.4 106.3c133.7 0 186.9-53.2 186.9-122.8c0-71.5-47.6-108.2-238.2-161.3c-249.3-69.6-379.5-157.6-379.5-333.6c0-196.1 146.7-326.2 428.9-326.2c295.1 0 416.1 113.7 416.1 113.7l-119.2 181.4c0 0-117.3-91.7-296.9-91.7c-120.9 0-179.6 42.2-179.6 110c0 66 56.8 95.3 229.1 142.9c269.4 71.6 392.2 166.8 392.2 344.6c0 192.5-133.7 346.4-434.4 346.4c-302.3 0-450.9-141.1-450.9-141.1l121.1-168.6Zm-760.6-813.8h256.6l-416.1 680v419.7h-221.8v-421.5l-412.3-678.2h256.5l227.3 383.1l31.2 69.6h20.1l33-69.6l225.5-383.1Zm-1955.6 813.8c0 0 144.8 106.3 324.4 106.3c133.8 0 187-53.2 187-122.8c0-71.5-47.7-108.2-238.3-161.3c-249.3-69.6-379.4-157.6-379.4-333.6c0-196.1 146.6-326.2 428.9-326.2c295.1 0 416 113.7 416 113.7l-119.1 181.4c0 0-117.3-91.7-296.9-91.7c-121 0-179.7 42.2-179.7 110c0 66 56.9 95.3 229.1 142.9c269.5 71.6 392.3 166.8 392.3 344.6c0 192.5-133.8 346.4-434.4 346.4c-302.4 0-450.9-141.1-450.9-141.1l121-168.6Z" fill-rule="nonzero" fill="#fefefe"/><path class="fil4" d="M13059.6 7327.6c-72.2 62.7-154.2 119.8-244.4 169.7c16.7-13.3-35.8-68.6-19.9-82.8c397.7-345.8 488.7-791.1 328.1-1182.8c-21.7-52.8 23.9-74 24.2-122.5c366.4 346.2 326.8 857.7-88 1218.4Z" fill="#e8e7e8"/><path class="fil5" d="M13147.6 6109.2c-134.4-127.1-323-231.9-567.8-298.9c-1.1-0.3-2.1-0.5-3.1-0.8c1.1 .3 2.2 .5 3.4 .8c80.3 21.2 86.6 114.1 141.9 161.1c118.5 100.5 150.8 229.3 163 399.3c18.2 253 16.7 503.4-168.1 726.2c-97 117-219.4 223.3-364.2 285.8c-10.6 4.8-21.3 9.5-32.3 14.1c-1.7 .4-3 1.2-4.7 1.7c-69.6 27.9-146.9 50.7-232.4 66.5c-299.7 56.8-696.2 33.1-1175.9-119.4c191.5 147.8 396.8 246.1 603.9 302.8c226.7 62.3 455.6 75.2 672.1 49.4c.4 0 1.3 0 1.7-0.4c32.2-3.5 64-8.1 95.4-13.8c125.8-21.9 246.5-57 358.6-102.6h.4c61-24.9 119.9-52.8 175.7-83.7c16.7-13.4 33.5-27.1 49.4-41.3c451.3-392.5 553.6-925.1 283-1346.8Z" fill="#fff"/><path class="fil6" d="M12320.4 7396.7c560.8-228.5 591-807.5-60.7-1133.5c-473.4-236.9-264.3-612.8 320.4-452.9c653 171.5 459.8 1308.9-259.7 1586.4Z" fill="#d4d4d4"/><path class="fil4" d="M13190.7 5497.3c-616.3-196-1094.3-179.1-1408.1-52.8c-1.5 .6-3 1.2-4.6 1.9c-466.4 190-565.8 622.5-211.2 950.1c-93.4-77.5-200.1-159.8-246.2-264.6c-58.9-133.8-76.7-299.3-53.1-438.5c31.9-188.2 150.9-357.9 346.7-461.6c77.9-41.3 195.3-70.9 300.8-86.8c414.5-49.5 874.9 42.5 1275.7 352.3Z" fill="#e8e7e8"/><path class="fil5" d="M11671.2 7063.9c-40.6-13.1-86.2-19.3-123.6-34.3c-476-191.5-730.2-547.6-721.1-899c6.5-249.6 152.9-502.6 392.6-711c67.8-58.9 157.2-108.7 239.5-157.6c.2-0.2 .4-0.2 .6-0.2c112.1-45.6 232.7-80.7 358.7-102.7c32-5.5 64.3-10.1 97.1-14c-38.6 5.9-75.3 13.4-110.2 23.2c-616 167.5-652.8 884.3-238 1228.3c0 0 .2 0 .4 .2c71.7 66.2 162 128.4 271.4 183c429.3 215 297.3 544.3-167.5 484.1Z" fill="#fff"/><path class="fil6" d="M11671.2 7063.9c-47.5-6.1-98.7-16.3-152.9-31.1c-912.6-249.5-1046.5-1024.6-479.6-1517.5c116.9-101.6 259.7-188.2 419.9-253.3c-82.3 48.9-158.3 103.4-226.2 162.2c-603.5 524.9-483.3 1341.2 438.8 1639.7Z" fill="#d4d4d4"/><path class="fil7" d="M8059.2 16406.3h236.5v-121.4h-604.9v121.4h236.4v624h132.1v-624Zm1080.9 250.2c0-52.5-9.6-102.2-28.8-149c-19.1-46.9-45.8-87.7-79.8-122.5c-34.1-34.8-74.9-62.3-122.5-82.6c-47.6-20.2-100.1-30.3-157.6-30.3c-57.5 0-110 10.3-157.6 30.9c-47.6 20.6-88.8 48.4-123.5 83.6c-34.8 35.1-61.8 76.1-81 123c-19.1 46.8-28.7 96.5-28.7 149.1c0 52.5 9.6 102.2 28.7 149c19.2 46.9 45.8 87.7 79.9 122.5c34.1 34.8 74.9 62.3 122.5 82.5c47.5 20.3 100.1 30.4 157.6 30.4c57.5 0 110-10.3 157.6-30.9c47.6-20.6 88.7-48.4 123.5-83.6c34.8-35.1 61.8-76.1 80.9-123c19.2-46.9 28.8-96.5 28.8-149.1Zm-137.4 2.2c0 36.2-6.2 70.4-18.6 102.7c-12.4 32.3-29.6 60.4-51.6 84.2c-22 23.8-48.5 42.6-79.4 56.4c-30.9 13.8-64.8 20.8-101.7 20.8c-36.9 0-71-7.1-102.2-21.3c-31.3-14.2-58-33.4-80.4-57.5c-22.4-24.2-39.8-52.4-52.2-84.7c-12.4-32.3-18.6-66.5-18.6-102.8c0-36.2 6.2-70.4 18.6-102.7c12.4-32.3 29.7-60.4 51.7-84.2c22-23.8 48.4-42.6 79.3-56.4c30.9-13.8 64.8-20.8 101.7-20.8c36.9 0 71 7.1 102.2 21.3c31.3 14.2 58.1 33.4 80.4 57.6c22.4 24.1 39.8 52.3 52.2 84.6c12.4 32.3 18.6 66.5 18.6 102.8Zm631.6-53.3l309.8-320.5h-160.8l-354.6 374.8v-374.8h-129.9v745.4h129.9v-216.2l116.1-119.2l254.5 335.4h158.7l-323.7-424.9Zm988.2-320.5h-551.6v745.4h556.9v-118.2h-427v-199.1h373.8v-118.2h-373.8v-191.7h421.7v-118.2Zm681.5 515.4l-398.4-515.4h-121.3v745.4h130v-530.3l410.1 530.3h109.6v-745.4h-130v515.4Zm903.1 37.3l-177.9-552.7h-141.6l259.8 750.7h112.9l183.2-535.6l183.1 535.6h112.9l259.9-750.7h-137.4l-177.8 552.7l-183.2-554.9h-110.8l-183.1 554.9Zm1216.1-558.1h-121.4l-328 750.8h134.2l76.7-179.9h352.4l75.7 179.9h138.4l-328-750.8Zm66 454.8h-256.6l127.8-298.2l128.8 298.2Zm389.8 296h521.8v-118.2h-391.9v-627.2h-129.9v745.4Zm659.2 0h521.8v-118.2h-391.9v-627.2h-129.9v745.4Zm1210.8-745.4h-551.6v745.4h556.9v-118.2h-427v-199.1h373.8v-118.2h-373.8v-191.7h421.7v-118.2Zm477.1 121.4h236.4v-121.4h-604.9v121.4h236.4v624h132.1v-624Z" fill-rule="nonzero" fill="#fff"/><path class="fil8" d="M10590.6 17556.7l34.6 132.8l167.2-46.5v769.9h162v-935.8h-114.2l-249.5 79.6Zm758 856.2v-181.9h-176.6v181.9h176.6Zm949.1-465.9c0-66.4-9.6-128.8-28.6-187.2c-19-58.4-46.2-109.3-81.6-152.6c-35.4-43.4-77.9-77.5-127.5-102.2c-49.5-24.8-104.8-37.2-165.9-37.2c-61 0-116.5 12.6-166.5 37.8c-50.1 25.2-92.8 59.5-128.1 102.9c-35.5 43.3-62.9 94.5-82.3 153.3c-19.5 58.9-29.2 121.5-29.2 187.8c0 66.4 9.5 128.8 28.5 187.2c19 58.4 46.2 109.3 81.6 152.7c35.4 43.3 77.9 77.4 127.4 102.2c49.6 24.7 104.9 37.1 166 37.1c61 0 116.6-12.6 166.6-37.8c50-25.2 92.7-59.5 128.1-102.9c35.4-43.3 62.8-94.4 82.3-153.3c19.4-58.8 29.2-121.5 29.2-187.8Zm-168.6 2.6c0 46-5.5 89.2-16.6 129.5c-11.1 40.2-26.8 75.4-47.1 105.5c-20.4 30.1-44.9 53.7-73.7 71c-28.8 17.3-61.3 25.9-97.6 25.9c-36.3 0-69-8.6-98.2-25.9c-29.2-17.3-54.2-41.2-75-71.7c-20.8-30.5-36.7-65.9-47.8-106.2c-11-40.2-16.6-83.8-16.6-130.7c0-46 5.6-89.4 16.6-130.1c11.1-40.7 26.8-75.9 47.2-105.6c20.3-29.6 44.9-53.1 73.6-70.3c28.8-17.2 61.3-25.9 97.6-25.9c36.3 0 69 8.8 98.2 26.6c29.2 17.7 54.2 41.5 75 71.6c20.8 30.1 36.7 65.5 47.8 106.2c11.1 40.7 16.6 84.1 16.6 130.1Zm484.5 463.3v-181.9h-176.5v181.9h176.5Zm949.1-465.9c0-66.4-9.5-128.8-28.5-187.2c-19.1-58.4-46.3-109.3-81.7-152.6c-35.4-43.4-77.8-77.5-127.4-102.2c-49.6-24.8-104.9-37.2-165.9-37.2c-61.1 0-116.6 12.6-166.6 37.8c-50 25.2-92.7 59.5-128.1 102.9c-35.4 43.3-62.9 94.5-82.3 153.3c-19.5 58.9-29.2 121.5-29.2 187.8c0 66.4 9.5 128.8 28.5 187.2c19.1 58.4 46.3 109.3 81.6 152.6c35.5 43.4 77.9 77.5 127.5 102.2c49.6 24.8 104.8 37.2 165.9 37.2c61.1 0 116.6-12.6 166.6-37.8c50-25.2 92.7-59.5 128.1-102.9c35.4-43.3 62.8-94.5 82.3-153.3c19.4-58.8 29.2-121.5 29.2-187.8Zm-168.6 2.6c0 46-5.5 89.2-16.6 129.5c-11 40.2-26.7 75.4-47.1 105.5c-20.4 30.1-44.9 53.7-73.6 71c-28.8 17.3-61.4 25.9-97.6 25.9c-36.3 0-69-8.6-98.2-25.9c-29.3-17.3-54.3-41.2-75.1-71.7c-20.7-30.5-36.7-65.9-47.8-106.2c-11-40.2-16.5-83.8-16.5-130.7c0-46 5.5-89.4 16.5-130.1c11.1-40.7 26.8-75.9 47.2-105.6c20.3-29.6 44.9-53.1 73.6-70.3c28.8-17.2 61.3-25.9 97.6-25.9c36.3 0 69 8.8 98.2 26.6c29.3 17.7 54.3 41.5 75 71.6c20.8 30.1 36.8 65.5 47.8 106.2c11.1 40.7 16.6 84.1 16.6 130.1Z" fill-rule="nonzero" fill="#fff"/><g opacity="0" transform="translate(11961.9,13205.2) scale(.412,.412) translate(-6120.2,-1327.3)" style="animation: 6s linear both b_t, 6s linear both b_o;"><path class="fil7" d="M0 164.1h1797.1v408.8h-1330.5v563h1141.5v381.8h-1141.5v960.3h-466.6v-2313.9Zm3075.1 2364c-159.4 0-303.3-25.7-431.9-77.1c-128.5-51.4-237.8-123.4-327.8-216c-90-92.6-158.7-202.5-206.3-329.7c-47.6-127.3-71.3-265.5-71.3-414.6v-1326.6h466.6v1326.6c0 79.7 11.6 155.6 34.7 227.5c23.2 72 58.5 135 106.1 189c47.5 54 107.3 96.4 179.3 127.3c72 30.8 155.5 46.3 250.7 46.3c95.1 0 178-15.5 248.7-46.3c70.7-30.9 129.2-73.3 175.5-127.3c46.2-54 80.9-116.3 104.1-187c23.1-70.7 34.7-147.2 34.7-229.5v-1326.6h466.6v1326.6c0 149.1-23.1 287.3-69.4 414.6c-46.3 127.2-113.7 237.2-202.4 329.7c-88.8 92.6-196.7 164.6-324 216c-127.3 51.4-271.9 77.1-433.8 77.1Zm1559.6-651.8c61.7 43.7 128.6 81 200.6 111.9c61.6 28.3 133.6 54 215.9 77.1c82.3 23.1 171 34.7 266.1 34.7c141.4 0 242.3-24.4 302.7-73.2c60.4-48.9 90.7-110.6 90.7-185.2c0-38.5-7.1-72.6-21.3-102.2c-14.1-29.5-40.4-57.1-79-82.9c-38.6-25.7-90-50.7-154.3-75.2c-64.2-24.4-146.5-50.7-246.8-79c-262.2-72-460.8-160.7-595.8-266.1c-135-105.4-202.5-250.7-202.5-435.8c0-208.3 75.9-374.7 227.6-499.4c151.7-124.7 376.6-187.1 674.9-187.1c154.2 0 286.6 12.9 397.2 38.6c110.5 25.7 201.8 52.7 273.8 81c84.8 36 153 75.9 204.3 119.6l-250.6 381.8c-48.8-36.1-105.4-68.2-169.7-96.5c-54-23.1-119.5-44.9-196.7-65.5c-77.1-20.6-163.2-30.9-258.4-30.9c-128.5 0-223.6 20.6-285.3 61.7c-61.7 41.2-92.6 97.7-92.6 169.7c0 36 8.4 66.8 25.1 92.6c16.7 25.7 43.7 50.1 81 73.2c37.2 23.2 86.7 45 148.4 65.6c61.8 20.6 137.6 43.7 227.6 69.4c285.3 74.6 494.2 167.1 626.6 277.7c132.4 110.5 198.6 259.6 198.6 447.3c0 100.3-18 194.8-54 283.5c-36 88.7-91.2 165.8-165.8 231.4c-74.5 65.5-169.7 117.6-285.3 156.1c-115.8 38.6-252 57.9-408.9 57.9c-161.9 0-301.4-15.4-418.4-46.3c-117-30.8-215.3-64.3-295-100.2c-92.6-43.8-171-93.9-235.2-150.4l254.5-354.9Zm2384.9 601.7h-466.7v-2313.9h466.7v2313.9Zm5220.9 0h-111.9l-1550.3-1411.5v1411.5h-466.6v-2313.9h115.7l1550.3 1380.6v-1376.8h462.8v2310.1Z" fill-rule="nonzero" fill="#fff"/><path class="fil9" d="M8536.1 506.1c-44.2 7.7-203.2 107.2-254 135.4c-121.7 67.4-250.8 143.4-372.9 213c-95.4 54.4-84.8 119.1-84.8 208.2v485.8c0 160.8-19 203.8 115.3 275.3c122.1 65 253.5 145.4 375.9 210.1c42.8 22.6 81.9 47 125.3 70.1c41.5 22.1 82.9 54.9 144.9 45.8c42.7-6.3 96-42.7 130.6-62.2l374.4-211.6c42.1-23.9 82.4-47.2 124.7-70.6c23.7-13.3 37.6-24.9 52.9-44.9c13.7-18.1 24.4-41.6 27.8-69.5c3.7-29.1 1.3-528.6 1.3-583.2c0-91.6 15.3-178.4-59.4-234.4l-431.2-252.4c-41.8-23.9-82-48.7-123.2-72.1c-45.2-25.6-79.4-54.8-147.6-42.8Zm-15.3-501.7c-71.1 12.5-327.2 172.8-409.2 218.2c-196 108.6-403.8 231-600.5 343.2c-153.8 87.6-136.7 191.7-136.7 335.3v782.5c0 259-30.6 328.3 185.8 443.5c196.6 104.6 408.3 234.1 605.5 338.4c68.8 36.4 131.8 75.6 201.7 112.9c66.9 35.6 133.6 88.5 233.5 73.7c68.8-10.1 154.6-68.7 210.3-100.2l603.1-340.8c67.8-38.4 132.8-76 200.8-113.9c38.3-21.2 60.7-39.9 85.2-72.2c22.2-29 39.4-66.9 45-111.8c5.8-47 1.9-851.6 1.9-939.5c0-147.6 24.8-287.3-95.6-377.5l-694.6-406.7c-67.2-38.4-132-78.3-198.5-116c-72.9-41.3-127.9-88.3-237.7-69.1Z" fill="#fff"/></g><path class="fil10" d="M12154.2 1276.9l10599.1 10599.1l-10711.3 10711.3l-10711.3-10711.3l10711.3-10711.3l112.2 112.2Zm10150.5 10599.1l-10262.7-10262.6l-10262.6 10262.6l10262.6 10262.7l10262.7-10262.7Z" fill-rule="nonzero" fill="#6597f4" opacity="0" style="animation: 6s linear both c_o;"/><path class="fil10" d="M12882.5 1706.3c737.1 425.5 7841.8 4533.2 7852.5 4533.2c240.6 138.9 445.6 360.1 590.2 614.9c146.2 257.5 232.2 551.3 232.2 830.8v9066.4c0 277.4-89.3 565.6-237.8 818.7c-149.6 254.9-361.2 476.1-604 616.3l-7851.3 4532.9c-240.5 139.2-534.5 206.2-827.3 204.1c-295.8-2.1-593.2-74.7-835.5-214.6c-737.1-425.6-7841.8-4533.2-7852.5-4533.2c-240.6-138.9-445.6-360.2-590.2-614.9c-146.2-257.5-232.2-551.4-232.2-830.8v-9066.5c0-277.3 89.3-565.6 237.8-818.7c149.6-254.8 361.3-476.1 604-616.2l7851.3-4533c240.5-139.2 534.5-206.2 827.3-204.1c295.8 2.2 593.2 74.7 835.5 214.7Zm3759.1 2535.1l-3916.5-2261.2c-194.7-112.4-436.7-170.8-679.4-172.5c-239.1-1.7-476.4 51.4-667.4 161.7c-10.6 0-7115.4 4107.7-7852.5 4533.2c-194.3 112.2-365.7 292.7-488.7 502.2c-120.6 205.6-193.1 437.7-193.1 658.8v9066.5c0 225.2 70.3 463.8 189.9 674.6c118 207.8 282.8 386.8 473.8 497.1l7851.2 4533.2c194.7 112.4 436.7 170.8 679.4 172.6c239.1 1.6 476.4-51.5 667.5-161.8c10.6 0 7115.4-4107.6 7852.4-4533.2c194.3-112.1 365.7-292.6 488.7-502.2c120.7-205.5 193.2-437.6 193.2-658.8v-9066.4c0-225.3-70.4-463.9-190-674.6c-118-207.8-282.8-386.8-473.8-497.2l-3934.7-2272Z" fill-rule="nonzero" fill="#6597f4" opacity="0" transform="translate(12042,11876) scale(.9,.9) translate(-12042,-12207.6)" style="animation: 6s linear both d_t, 6s linear both d_o;"/></g></svg>