<?xml version="1.0" encoding="UTF-8"?>
<!DOCTYPE svg PUBLIC "-//W3C//DTD SVG 1.1//EN" "http://www.w3.org/Graphics/SVG/1.1/DTD/svg11.dtd">
<!-- Creator: CorelDRAW 2018 (64-Bit) -->
<svg xmlns="http://www.w3.org/2000/svg" xml:space="preserve" width="3.16667in" height="3.02667in" version="1.1" style="shape-rendering:geometricPrecision; text-rendering:geometricPrecision; image-rendering:optimizeQuality; fill-rule:evenodd; clip-rule:evenodd"
viewBox="0 0 3166.67 3027.78"
 xmlns:xlink="http://www.w3.org/1999/xlink">
 <defs>
  <style type="text/css">
   <![CDATA[
    .fil0 {fill:#333}
   ]]>
  </style>
 </defs>
 <g id="Layer_x0020_1">
  <metadata id="CorelCorpID_0Corel-Layer"/>
  <g id="_2621096421008">
   <path class="fil0" d="M2876.05 1147.02c-158.19,-149.61 -380.07,-272.93 -668.17,-351.78 -0.58,-0.16 -1.14,-0.29 -1.69,-0.42l-0.06 -0.01 -0.06 -0.01 -0.06 -0.02c-686.38,-186.73 -931.38,255.04 -374.85,533.46 630.91,315.6 718.69,832.7 362.48,1155.89 -90.69,82.29 -385.53,235.67 -656.69,273.23 -431.08,59.72 -908.73,-31.78 -1297.18,-155.24 225.42,173.86 467.01,289.61 710.62,356.32 605.67,166.34 1337.18,43.89 1822.04,-377.54 488.24,-424.56 534.74,-1026.51 103.61,-1433.88zm-667.9 -351.68c2.11,0.56 4.18,1.17 6.2,1.81 -2.09,-0.57 -4.09,-1.25 -6.2,-1.81z"/>
   <path class="fil0" d="M888.45 150.09c0.24,-0.24 0.48,-0.24 0.72,-0.24 674.69,-274.84 1453.81,-174.21 2037.64,277.11 -725.24,-230.64 -1287.85,-210.74 -1657.05,-62.15 -1.83,0.67 -3.65,1.33 -5.47,2.17 -455.71,185.75 -613.68,568.13 -415.28,913.29 106.93,186.03 295.32,325.07 486.66,420.56 505.24,252.98 349.86,640.49 -197.11,569.75 -55.87,-7.2 -116.06,-19.18 -179.84,-36.69 -1074.04,-293.5 -1231.58,-1205.67 -564.48,-1785.74 137.64,-119.65 305.74,-221.57 494.22,-298.06z"/>
  </g>
 </g>
</svg>
